- 
http://www.Speed.Cd      fast  and The Hottest Private Tracker on the net

   signup is open now

Please Seed back to make the speed Faster!!!

------------------nfo--------------------------
-[size=3][color=#00CCCC]



           The Debt 2011 DVDRIP XVID AC3 - SPEEDY



IMDB: http://www.imdb.com/title/tt1226753/[/color]
[/size]


[size=3][color=#FF6600]
General


Complete name                    : The Debt 2011 DVDRIP XVID AC3 - SPEEDY.avi
Format                           : AVI
Format/Info                      : Audio Video Interleave
Format profile                   : OpenDML
Format settings                  : rec
File size                        : 1.30 GiB
Duration                         : 1h 53mn
Overall bit rate                 : 1 635 Kbps

[/color][/size]


[size=3][color=#CC6600]
Video


ID                               : 0
Format                           : MPEG-4 Visual
Format profile                   : Advanced Simple@L5
Format settings, BVOP            : 4
Format settings, QPel            : No
Format settings, GMC             : No warppoints
Format settings, Matrix          : Default (H.263)
Codec ID                         : XVID
Codec ID/Hint                    : XviD
Duration                         : 1h 53mn
Bit rate                         : 1 246 Kbps
Width                            : 720 pixels
Height                           : 288 pixels
Display aspect ratio             : 2.500
Frame rate                       : 23.976 fps
Color space                      : YUV
Chroma subsampling               : 4:2:0
Bit depth                        : 8 bits
Scan type                        : Progressive
Compression mode                 : Lossy
Bits/(Pixel*Frame)               : 0.251
Stream size                      : 1 011 MiB (76%)

[/color][/size]



[size=3][color=#FF6633]

Audio


ID                               : 1
Format                           : AC-3
Format/Info                      : Audio Coding 3
Mode extension                   : CM (complete main)
Codec ID                         : 2000
Duration                         : 1h 53mn
Bit rate mode                    : Constant
Bit rate                         : 384 Kbps
Channel(s)                       : 6 channels
Channel positions                : Front: L C R, Side: L R, LFE
Sampling rate                    : 48.0 KHz
Bit depth                        : 16 bits
Compression mode                 : Lossy
Stream size                      : 312 MiB (23%)
Alignment                        : Aligned on interleaves
Interleave, duration             : 64 ms (1.53 video frames)
Interleave, preload duration     : 192 ms

[/color][/size]



[size=3][color=#00FF99]
PLOT
 
 Storyline

The espionage thriller begins in 1997, as shocking news reaches retired Mossad secret agents Rachel (Helen Mirren) and Stefan (Tom Wilkinson) about their former colleague David (Ciarn Hinds). All three have been venerated for decades by their country because of the mission that they undertook back in 1966, when the trio (portrayed, respectively, by Jessica Chastain, Marton Csokas, and Sam Worthington) tracked down Nazi war criminal Vogel (Jesper Christensen) in East Berlin. At great risk, and at considerable personal cost, the team's mission was accomplished - or was it? The suspense builds in and across two different time periods, with startling action and surprising revelations. Written by Focus Features   


Genres: Drama | Thriller   


Director: John Madden

Writers: Matthew Vaughn (screenplay), Jane Goldman (screenplay), 

Stars: Helen Mirren, Sam Worthington and Tom Wilkinson [/color][/size]


[size=3][color=#996600]

SOURCE
Video : The Debt DVDR-Replica
Audio : The Debt DVDR-Replica


ADDED A LITTLE: brightness and contrass it up abit and little bit sharper 

Tweak hue N SAT:)  [/color][/size]





[size=3]
[color=#0066FF]IF YOU ENJOY THIS PLEAS REP ME ENJOY FOLKS :)



SCREENS:






GREETS:

 TO ALL P2P GROUPS :)[/color][/size]